<svg xmlns="http://www.w3.org/2000/svg" width="300.028" height="300" viewBox="0 0 300.028 300">
  <g id="warning" transform="translate(-10.682 -6.014)">
    <path id="Path_36297" data-name="Path 36297" d="M11.8,290.327,147.638,12.133a10.9,10.9,0,0,1,19.5-.183L309.5,290.144a10.9,10.9,0,0,1-9.706,15.87H21.6a10.9,10.9,0,0,1-9.8-15.687Z" transform="translate(0 0)"/>
    <path id="Path_36298" data-name="Path 36298" d="M257.671,158.659l-7.459,100.1a13.6,13.6,0,0,1-27.123,0l-7.459-100.1a21.078,21.078,0,0,1,42.04-3.132,22.954,22.954,0,0,1,0,3.132Zm-21.02,134.008a19.325,19.325,0,1,0,19.325,19.325A19.325,19.325,0,0,0,236.651,292.666Z" transform="translate(-79.443 -50.406)" fill="#fff"/>
  </g>
</svg>
