<svg xmlns="http://www.w3.org/2000/svg" xmlns:xlink="http://www.w3.org/1999/xlink" width="152.747" height="50" viewBox="0 0 152.747 50">
  <defs>
    <clipPath id="clip-path">
      <rect id="Rectangle_2679" data-name="Rectangle 2679" width="152.747" height="50" fill="none"/>
    </clipPath>
  </defs>
  <g id="zima" transform="translate(-1717 -980)">
    <g id="Group_6487" data-name="Group 6487" transform="translate(1717 980)">
      <path id="Path_36303" data-name="Path 36303" d="M33.018,42.153,35.4,39.809l2.7,2.8-2.366,2.248Zm-10.739-3.16,2.916-2.863,2.752,2.737-2.9,2.883Zm-17.1-3.445L7.85,32.887l2.377,2.366-2.673,2.66Zm6.98,7.071,9.78-9.732,2.375,2.362-9.8,9.61Zm23.689-9.851,2.433,2.454L25.052,48.244l-6.057-6.029,2.393-2.35,3.663,3.644Zm-20.535-.812,2.845-2.831,2.9,2.882-2.824,2.811Zm13.938,0,2.916-2.9,2.8,2.828-2.876,2.863ZM19.039,28.244l2.307-2.3,9.859,9.677-2.374,2.361Zm14.009-.07,2.307-2.3,9.719,9.67L42.7,37.91ZM22.232,25.068l2.892-2.879,2.9,2.882-2.873,2.859ZM8.284,25.059l2.786-2.883,2.869,2.892-2.8,2.789ZM36.241,25l2.845-2.831,2.876,2.9L39.137,27.88ZM26.039,28.8l9.881-9.832,2.288,2.307-9.849,9.8Zm-14.012-.073,9.836-9.788,2.378,2.365L14.42,31.081ZM1.761,25.067,7.827,18.9l2.365,2.386L6.526,25.084,17.342,35.7l-2.449,2.438Zm13.455-7.018,2.93-2.8,2.831,2.819-2.892,2.879ZM29.2,17.993l2.915-2.859,2.926,2.952-2.874,2.859ZM5.173,14.453,7.55,12.086l9.65,9.737-2.378,2.365ZM40,14.766l2.7-2.682,2.377,2.366-2.709,2.694Zm-28.032.006,2.849-2.837,2.442,2.429-2.923,2.8ZM40.022,28.76l3.7-3.684L33.006,14.26,35.4,11.91,48.486,25.069,42.4,31.126ZM22.229,11.054,25.06,8.238l2.952,2.827-2.888,2.872ZM12.145,7.514l2.377-2.365L31.283,21.826l-2.377,2.365Zm13.865,7.3,9.718-9.669L38.1,7.511l-9.785,9.6ZM18.967,7.809l6.088-6.058,6.225,6.063L28.9,10.183,25.041,6.494l-3.7,3.681ZM25.045,0,18.081,6.928l-3.56-3.541L10.376,7.514l3.558,3.54-2.844,2.831L7.557,10.319,3.411,14.446l3.538,3.571L0,25.076l6.965,6.931L3.408,35.548l4.146,4.125,3.557-3.539,2.9,2.882L10.364,42.64,14.53,46.6,18.1,43.09,25.049,50l7.079-6.97L35.717,46.6l4.158-3.949-3.586-3.716,2.867-2.824,3.536,3.568,4.152-4.128-3.56-3.541,6.967-6.933-7.007-7.044,3.6-3.58L42.7,10.321l-3.577,3.56-2.829-2.846,3.586-3.516-4.15-4.131L32.163,6.934,25.047,0Z"/>
      <g id="Group_6486" data-name="Group 6486" transform="translate(0 0)">
        <g id="Group_6485" data-name="Group 6485" clip-path="url(#clip-path)">
          <path id="Path_36304" data-name="Path 36304" d="M137.968,20.057a38.6,38.6,0,0,0-2.585-4.6c-1.667-2.893-3.544-6.236-5.222-9.151-1.382-2.4-2.67-5.485-6.1-5.532-3.569-.05-4.754,3.1-6.049,5.375C113.9,13.374,105.5,27.916,105.5,27.916h3.876s8.016-14.185,12-21.355c.508-.917,1.517-2.121,2.688-2.121,1.776,0,2.665,2.115,3.463,3.569,2.138,3.891,4.2,7.617,6.2,11.373.63,1.183,1.91,2.738,1.034,4.344-.572,1.047-1.725.984-3.361.984,0,.026-15.82,0-15.82,0v3.2h14.373a33.78,33.78,0,0,0,4.756-.155c2.273-.424,3.506-2.185,3.828-4.445v-.568a9.1,9.1,0,0,0-.568-2.688" transform="translate(14.211 0.104)"/>
          <path id="Path_36305" data-name="Path 36305" d="M66.054,26.306H48.7L65.938,2.231a1.362,1.362,0,0,0,.269-.787V.772H46.587V2.406H63.593L46.319,26.537a1.178,1.178,0,0,0-.23.691v.71H66.054Z" transform="translate(6.208 0.104)"/>
          <rect id="Rectangle_2674" data-name="Rectangle 2674" width="1.978" height="27.164" transform="translate(79.057 0.875)"/>
          <path id="Path_36306" data-name="Path 36306" d="M104.154.83a.7.7,0,0,0-.308.306L93.174,20.008a4.854,4.854,0,0,0-.279.566c-.084.2-.163.4-.241.6a7.727,7.727,0,0,0-.5-1.152L81.193,1.136a.687.687,0,0,0-.317-.308,1.361,1.361,0,0,0-.432-.057H79.1V27.936h1.708V4.783a10.315,10.315,0,0,0-.057-1.075L91.73,22.715a.865.865,0,0,0,.768.5H92.8a.837.837,0,0,0,.768-.5L104.266,3.728a10.261,10.261,0,0,0-.058,1.056V27.937h1.728V.773h-1.361a1.237,1.237,0,0,0-.422.057" transform="translate(10.655 0.103)"/>
          <path id="Path_36307" data-name="Path 36307" d="M53.309,38.624a3.9,3.9,0,0,0-.967-.61q-.541-.242-1.109-.436T50.126,37.2a5.27,5.27,0,0,1-.967-.427,2.211,2.211,0,0,1-.685-.593,1.417,1.417,0,0,1-.26-.875,1.961,1.961,0,0,1,.15-.768,1.708,1.708,0,0,1,.444-.62,2.165,2.165,0,0,1,.734-.419,3.064,3.064,0,0,1,1.011-.153,3.135,3.135,0,0,1,1.033.15,3.971,3.971,0,0,1,.73.329,5.328,5.328,0,0,1,.5.33.61.61,0,0,0,.347.149.369.369,0,0,0,.229-.066.665.665,0,0,0,.168-.2l.413-.809a4.448,4.448,0,0,0-1.521-.967,5.347,5.347,0,0,0-1.926-.334,4.468,4.468,0,0,0-1.666.289A3.653,3.653,0,0,0,47.644,33a3.524,3.524,0,0,0-.751,3.8,2.821,2.821,0,0,0,.681.945,3.6,3.6,0,0,0,.962.615,10.826,10.826,0,0,0,1.107.418l1.107.352a4.819,4.819,0,0,1,.963.418,2.153,2.153,0,0,1,.681.612,1.58,1.58,0,0,1,.26.936,2.417,2.417,0,0,1-.177.941,2.024,2.024,0,0,1-.5.724,2.284,2.284,0,0,1-.8.471,3.243,3.243,0,0,1-1.08.167,3.407,3.407,0,0,1-1.236-.2,4.607,4.607,0,0,1-.861-.435,7.1,7.1,0,0,1-.593-.436.7.7,0,0,0-.422-.2.4.4,0,0,0-.225.066.626.626,0,0,0-.17.162l-.492.809a5.229,5.229,0,0,0,1.718,1.2,5.462,5.462,0,0,0,2.229.445,4.906,4.906,0,0,0,1.789-.308,3.853,3.853,0,0,0,1.326-.844,3.6,3.6,0,0,0,.823-1.262,4.258,4.258,0,0,0,.28-1.551,3,3,0,0,0-.259-1.319,2.8,2.8,0,0,0-.685-.905" transform="translate(6.208 4.301)"/>
          <rect id="Rectangle_2675" data-name="Rectangle 2675" width="4.872" height="1.337" transform="translate(67.008 41.949)"/>
          <rect id="Rectangle_2676" data-name="Rectangle 2676" width="6.024" height="1.389" transform="translate(67.006 36.376)"/>
          <rect id="Rectangle_2677" data-name="Rectangle 2677" width="6.024" height="1.389" transform="translate(67.006 47.584)"/>
          <path id="Path_36308" data-name="Path 36308" d="M77.811,42.069a.441.441,0,0,0-.289.132,5.494,5.494,0,0,1-.664.514,3.457,3.457,0,0,1-.713.356,4.146,4.146,0,0,1-.829.207,6.958,6.958,0,0,1-1.011.066,4.426,4.426,0,0,1-1.722-.334,3.9,3.9,0,0,1-1.385-.971,4.659,4.659,0,0,1-.923-1.56,6.075,6.075,0,0,1-.339-2.1,5.959,5.959,0,0,1,.339-2.065,4.527,4.527,0,0,1,.944-1.565,4.157,4.157,0,0,1,1.447-.989,4.812,4.812,0,0,1,1.85-.347,5.26,5.26,0,0,1,.994.084,4.639,4.639,0,0,1,.756.207,3.592,3.592,0,0,1,.563.263c.159.094.3.183.413.264s.219.151.3.207a.448.448,0,0,0,.242.083.384.384,0,0,0,.229-.057.63.63,0,0,0,.141-.144l.554-.783a5.741,5.741,0,0,0-4.184-1.6,6.81,6.81,0,0,0-2.571.47,5.823,5.823,0,0,0-2,1.323,5.959,5.959,0,0,0-1.3,2.039,7.132,7.132,0,0,0-.462,2.611,7.6,7.6,0,0,0,.43,2.611,5.951,5.951,0,0,0,1.214,2.035,5.4,5.4,0,0,0,1.889,1.319,6.244,6.244,0,0,0,2.469.471,6.405,6.405,0,0,0,2.66-.5,5.4,5.4,0,0,0,1.878-1.4l-.668-.73a.357.357,0,0,0-.256-.113" transform="translate(9.186 4.301)"/>
          <path id="Path_36309" data-name="Path 36309" d="M90.009,39.714a4.511,4.511,0,0,1-.225,1.451,3.24,3.24,0,0,1-.651,1.134,2.923,2.923,0,0,1-1.042.738,3.807,3.807,0,0,1-2.8,0,2.976,2.976,0,0,1-1.046-.742,3.2,3.2,0,0,1-.649-1.135,4.468,4.468,0,0,1-.225-1.45V32.058h-1.7v7.656a5.746,5.746,0,0,0,.347,2.022,4.648,4.648,0,0,0,1,1.612A4.588,4.588,0,0,0,84.6,44.416a5.851,5.851,0,0,0,4.185,0,4.548,4.548,0,0,0,1.577-1.068,4.709,4.709,0,0,0,.994-1.612,5.772,5.772,0,0,0,.346-2.022V32.058h-1.7Z" transform="translate(11.002 4.318)"/>
          <path id="Path_36310" data-name="Path 36310" d="M99.252,39.117a4.817,4.817,0,0,0,1.3-.492,3.643,3.643,0,0,0,.976-.786,3.284,3.284,0,0,0,.61-1.042,3.6,3.6,0,0,0,.212-1.248,3.694,3.694,0,0,0-.273-1.447,2.8,2.8,0,0,0-.839-1.1,3.956,3.956,0,0,0-1.438-.7,7.779,7.779,0,0,0-2.066-.242H95.921V33.4H97.74a3.592,3.592,0,0,1,2.21.572,2,2,0,0,1,.744,1.7,2.538,2.538,0,0,1-.2,1.011,2.121,2.121,0,0,1-.574.787,2.688,2.688,0,0,1-.951.508,4.33,4.33,0,0,1-1.313.18H95.921V39.4h1.248a1.176,1.176,0,0,1,.528.092.964.964,0,0,1,.326.3l3.269,4.5a.747.747,0,0,0,.687.361h1.51l-3.674-5a1.789,1.789,0,0,0-.562-.536" transform="translate(12.921 4.318)"/>
          <rect id="Rectangle_2678" data-name="Rectangle 2678" width="1.705" height="12.596" transform="translate(122.546 36.376)"/>
          <path id="Path_36311" data-name="Path 36311" d="M113.668,33.491h4.087V44.654h1.705V33.491h4.07V32.058h-9.863Z" transform="translate(15.311 4.318)"/>
          <path id="Path_36312" data-name="Path 36312" d="M134.045,32.185a1.1,1.1,0,0,0-.216.268l-2.874,4.9a4.767,4.767,0,0,0-.29.571q-.114.272-.211.545-.1-.264-.216-.536a5.833,5.833,0,0,0-.294-.58l-2.883-4.9a1.12,1.12,0,0,0-.228-.28.536.536,0,0,0-.361-.115h-1.494l4.615,7.585v5.011h1.7V39.643l4.622-7.585H134.4a.5.5,0,0,0-.356.127" transform="translate(16.835 4.318)"/>
        </g>
      </g>
    </g>
  </g>
</svg>
